<svg width="30" height="30" viewBox="0 0 30 30" fill="none" xmlns="http://www.w3.org/2000/svg">
<path d="M18.8125 16.9125C21.1375 15.5875 22.7125 13.0875 22.7125 10.2125C22.7125 5.9625 19.25 2.5 15 2.5C10.75 2.5 7.28749 5.9625 7.28749 10.2125C7.28749 13.075 8.86249 15.575 11.1875 16.9125C7.31249 18.4375 4.54999 22.2125 4.54999 26.6375C4.54999 27.125 4.93749 27.5125 5.42499 27.5125C5.91249 27.5125 6.29999 27.125 6.29999 26.6375C6.29999 21.8375 10.2 17.9375 15 17.9375C19.8 17.9375 23.7 21.8375 23.7 26.6375C23.7 27.125 24.0875 27.5125 24.575 27.5125C25.0625 27.5125 25.45 27.125 25.45 26.6375C25.45 22.225 22.6875 18.45 18.8125 16.925V16.9125ZM9.03749 10.2125C9.03749 6.925 11.7125 4.25 15 4.25C18.2875 4.25 20.9625 6.925 20.9625 10.2125C20.9625 13.5 18.2875 16.175 15 16.175C11.7125 16.175 9.03749 13.5 9.03749 10.2125Z" fill="#181818"/>
</svg>
